# xmcd
#
# Track frame offsets:
# 183
# 10970
# 24833
# 39098
# 51295
# 61498
# 72883
# 85380
# 96325
# 117105
# 145558
# 164460
# 182890
# 194200
# 209990
# 229895
# 243048
# 256303
# 272335
# 288488
# 306223
# 321563
# 336568
#
# Disc length: 4664 seconds
#
# Revision: 1
# Processed by: cddbd v1.4PL0 Copyright (c) Steve Scherf et al.
# Submitted via: CedeCatalogueitor 2.5 http://usuarios.lycos.es/kakasboy
#
DISCID=5c123617
DTITLE=John Lee Hooker - The Boogie Man Disco4
DYEAR=1994
DGENRE=
TTITLE0=Have Mercy On Poor Me
TTITLE1=Crazy About That Walk
TTITLE2=We´re All God´s Chillum
TTITLE3=I´m Mad Again
TTITLE4=Want Ad Blues
TTITLE5=Boom Boom
TTITLE6=Drug Stone Woman
TTITLE7=Send Me Your Pillow
TTITLE8=Let´s Make It Baby
TTITLE9=The Right Time
TTITLE10=Shake It Baby
TTITLE11=Need Your Love
TTITLE12=This Is Hip
TTITLE13=One Way Ticket
TTITLE14=Half A Strnger
TTITLE15=Birmingham Blues
TTITLE16=Don´t Look Back
TTITLE17=It Serve Me Rigth To Suffer
TTITLE18=Mai Lee
TTITLE19=I´m Losin´ You
TTITLE20=Don´t Be Messing Around
TTITLE21=I´ll Never Trust Your Love Again
TTITLE22=One Bourbon, One Scotch, One Beer
EXTD=
EXTT0=
EXTT1=
EXTT2=
EXTT3=
EXTT4=
EXTT5=
EXTT6=
EXTT7=
EXTT8=
EXTT9=
EXTT10=
EXTT11=
EXTT12=
EXTT13=
EXTT14=
EXTT15=
EXTT16=
EXTT17=
EXTT18=
EXTT19=
EXTT20=
EXTT21=
EXTT22=
PLAYORDER=
